<svg width="512" height="512" viewBox="0 0 512 512" fill="none" xmlns="http://www.w3.org/2000/svg">
  <!-- White background with slight rounded corners -->
  <rect width="512" height="512" rx="80" fill="#ffffff"/>
  
  <!-- K letter in red -->
  <path d="M 80 140 L 80 390 L 140 390 L 140 290 L 200 390 L 280 390 L 200 270 L 270 140 L 190 140 L 140 230 L 140 140 Z" fill="#dc2626"/>
  
  <!-- Shopping cart in green -->
  <g transform="translate(200, 180)">
    <!-- Cart basket with grid -->
    <rect x="10" y="20" width="100" height="10" rx="5" fill="#22c55e"/>
    <path d="M 5 30 L 20 140 Q 20 150 30 150 L 85 150 Q 95 150 95 140 L 110 30 Z" fill="#22c55e" stroke="#22c55e" stroke-width="2"/>
    
    <!-- Grid pattern inside cart -->
    <rect x="30" y="50" width="18" height="30" fill="white" opacity="0.7"/>
    <rect x="52" y="50" width="18" height="30" fill="white" opacity="0.7"/>
    <rect x="74" y="50" width="18" height="30" fill="white" opacity="0.7"/>
    <rect x="30" y="85" width="18" height="30" fill="white" opacity="0.7"/>
    <rect x="52" y="85" width="18" height="30" fill="white" opacity="0.7"/>
    <rect x="74" y="85" width="18" height="30" fill="white" opacity="0.7"/>
    
    <!-- Wheels -->
    <circle cx="40" cy="170" r="14" fill="#22c55e"/>
    <circle cx="75" cy="170" r="14" fill="#22c55e"/>
  </g>
  
  <!-- M letter in red -->
  <path d="M 320 390 L 320 140 L 380 140 L 430 250 L 480 140 L 540 140 L 540 390 L 485 390 L 485 220 L 440 320 L 420 320 L 375 220 L 375 390 Z" fill="#dc2626"/>
  
  <!-- Bottom decorative line -->
  <rect x="70" y="410" width="370" height="16" rx="8" fill="#dc2626"/>
</svg>
